REM DIRINDEX 1\2,1\3
REM DIRNAME cjc132,folder01,folder02
TITLE ""
FILE "29.mp3" MP3
  TRACK 01 AUDIO
    TITLE "0:"
    INDEX 01 00:00:00
  TRACK 02 AUDIO
    TITLE "3:cjc132_0501"
    INDEX 01 00:00:15
  TRACK 03 AUDIO
    TITLE "0:"
    INDEX 01 00:01:34
  TRACK 04 AUDIO
    TITLE "2:cjc132_0502"
    INDEX 01 00:02:06
  TRACK 05 AUDIO
    TITLE "0:"
    INDEX 01 00:05:10
  TRACK 06 AUDIO
    TITLE "2:cjc132_0503"
    INDEX 01 00:05:57
  TRACK 07 AUDIO
    TITLE "0:"
    INDEX 01 00:07:52
  TRACK 08 AUDIO
    TITLE "2:cjc132_0504"
    INDEX 01 00:08:26
  TRACK 09 AUDIO
    TITLE "0:"
    INDEX 01 00:10:49
  TRACK 10 AUDIO
    TITLE "2:cjc132_0505"
    INDEX 01 00:11:25
  TRACK 11 AUDIO
    TITLE "0:"
    INDEX 01 00:13:14
  TRACK 12 AUDIO
    TITLE "2:cjc132_0506"
    INDEX 01 00:13:65
  TRACK 13 AUDIO
    TITLE "0:"
    INDEX 01 00:14:58
  TRACK 14 AUDIO
    TITLE "2:cjc132_0507"
    INDEX 01 00:15:64
  TRACK 15 AUDIO
    TITLE "0:"
    INDEX 01 00:17:29
  TRACK 16 AUDIO
    TITLE "2:cjc132_0508"
    INDEX 01 00:19:11
  TRACK 17 AUDIO
    TITLE "0:"
    INDEX 01 00:20:61
  TRACK 18 AUDIO
    TITLE "2:cjc132_0509"
    INDEX 01 00:22:64
  TRACK 19 AUDIO
    TITLE "0:"
    INDEX 01 00:24:65
  TRACK 20 AUDIO
    TITLE "2:cjc132_0510"
    INDEX 01 00:27:10
  TRACK 21 AUDIO
    TITLE "0:"
    INDEX 01 00:28:70
  TRACK 22 AUDIO
    TITLE "2:cjc132_0511"
    INDEX 01 00:31:02
  TRACK 23 AUDIO
    TITLE "0:"
    INDEX 01 00:32:29
  TRACK 24 AUDIO
    TITLE "2:cjc132_0512"
    INDEX 01 00:34:00
  TRACK 25 AUDIO
    TITLE "0:"
    INDEX 01 00:35:35
  TRACK 26 AUDIO
    TITLE "2:cjc132_0513"
    INDEX 01 00:37:20
  TRACK 27 AUDIO
    TITLE "0:"
    INDEX 01 00:38:61
  TRACK 28 AUDIO
    TITLE "2:cjc132_0514"
    INDEX 01 00:40:50
  TRACK 29 AUDIO
    TITLE "0:"
    INDEX 01 00:42:41
  TRACK 30 AUDIO
    TITLE "2:cjc132_0515"
    INDEX 01 00:44:60
  TRACK 31 AUDIO
    TITLE "0:"
    INDEX 01 00:46:41
  TRACK 32 AUDIO
    TITLE "2:cjc132_0516"
    INDEX 01 00:48:49
  TRACK 33 AUDIO
    TITLE "0:"
    INDEX 01 00:50:31
  TRACK 34 AUDIO
    TITLE "2:cjc132_0517"
    INDEX 01 00:52:37
  TRACK 35 AUDIO
    TITLE "0:"
    INDEX 01 00:53:72
  TRACK 36 AUDIO
    TITLE "2:cjc132_0518"
    INDEX 01 00:55:53
  TRACK 37 AUDIO
    TITLE "0:"
    INDEX 01 00:57:60
  TRACK 38 AUDIO
    TITLE "2:cjc132_0519"
    INDEX 01 01:00:13
  TRACK 39 AUDIO
    TITLE "0:"
    INDEX 01 01:02:06
  TRACK 40 AUDIO
    TITLE "2:cjc132_0520"
    INDEX 01 01:04:23
  TRACK 41 AUDIO
    TITLE "0:"
    INDEX 01 01:06:14
  TRACK 42 AUDIO
    TITLE "2:cjc132_0521"
    INDEX 01 01:08:25
  TRACK 43 AUDIO
    TITLE "0:"
    INDEX 01 01:10:20
  TRACK 44 AUDIO
    TITLE "2:cjc132_0522"
    INDEX 01 01:12:36
  TRACK 45 AUDIO
    TITLE "0:"
    INDEX 01 01:14:41
  TRACK 46 AUDIO
    TITLE "2:cjc132_0523"
    INDEX 01 01:16:65
  TRACK 47 AUDIO
    TITLE "0:"
    INDEX 01 01:18:53
  TRACK 48 AUDIO
    TITLE "2:cjc132_0524"
    INDEX 01 01:20:61
  TRACK 49 AUDIO
    TITLE "0:"
    INDEX 01 01:22:52
  TRACK 50 AUDIO
    TITLE "2:cjc132_0525"
    INDEX 01 01:24:65
  TRACK 51 AUDIO
    TITLE "0:"
    INDEX 01 01:26:62
  TRACK 52 AUDIO
    TITLE "2:cjc132_0526"
    INDEX 01 01:29:11
  TRACK 53 AUDIO
    TITLE "0:"
    INDEX 01 01:30:69
  TRACK 54 AUDIO
    TITLE "2:cjc132_0527"
    INDEX 01 01:33:01
  TRACK 55 AUDIO
    TITLE "0:"
    INDEX 01 01:35:39
  TRACK 56 AUDIO
    TITLE "2:cjc132_0528"
    INDEX 01 01:38:26
  TRACK 57 AUDIO
    TITLE "0:"
    INDEX 01 01:39:64
  TRACK 58 AUDIO
    TITLE "2:cjc132_0529"
    INDEX 01 01:41:54
  TRACK 59 AUDIO
    TITLE "0:"
    INDEX 01 01:43:41
  TRACK 60 AUDIO
    TITLE "2:cjc132_0530"
    INDEX 01 01:45:55
  TRACK 61 AUDIO
    TITLE "0:"
    INDEX 01 01:47:17
  TRACK 62 AUDIO
    TITLE "2:cjc132_0531"
    INDEX 01 01:48:73
  TRACK 63 AUDIO
    TITLE "0:"
    INDEX 01 01:52:00
  TRACK 64 AUDIO
    TITLE "2:cjc132_0532"
    INDEX 01 01:55:26
  TRACK 65 AUDIO
    TITLE "0:"
    INDEX 01 01:56:65
  TRACK 66 AUDIO
    TITLE "2:cjc132_0533"
    INDEX 01 01:58:52
  TRACK 67 AUDIO
    TITLE "0:"
    INDEX 01 02:00:45
  TRACK 68 AUDIO
    TITLE "2:cjc132_0534"
    INDEX 01 02:02:60
  TRACK 69 AUDIO
    TITLE "0:"
    INDEX 01 02:04:47
